<svg width="16" height="17" viewBox="0 0 16 17" xmlns="http://www.w3.org/2000/svg">
<path d="M15.5 5.94645C15.5 7.76019 14.3536 9.6744 12.834 11.4387C11.5254 12.9581 10.0092 14.2899 8.89215 15.271C8.7239 15.4188 8.5647 15.5587 8.41663 15.69C8.1862 15.8944 7.8138 15.8944 7.58337 15.69C7.43531 15.5587 7.27611 15.4188 7.10785 15.271C5.99083 14.2899 4.47465 12.9581 3.166 11.4387C1.6464 9.6744 0.5 7.76019 0.5 5.94645C0.5 3.40612 1.58802 2.1283 2.86631 1.58949C4.19794 1.0282 5.83351 1.22586 6.94513 1.8495C7.5843 2.20809 8.4157 2.20809 9.05487 1.8495C10.1665 1.22586 11.8021 1.0282 13.1337 1.58949C14.412 2.1283 15.5 3.40612 15.5 5.94645Z"/>
</svg>
