<svg width="24" height="24" viewBox="0 0 24 24" fill="none" xmlns="http://www.w3.org/2000/svg">
<circle cx="12" cy="12" r="3.5" stroke="#021704"/>
<path d="M20.188 13.0657L19.8021 12.7478L20.188 13.0657ZM20.188 10.9343L19.8021 11.2522L20.188 10.9343ZM20.7703 12H21.2703H20.7703ZM19.8021 12.7478C19.107 13.5918 17.9999 14.79 16.6329 15.7735C15.2618 16.7599 13.6718 17.5 12 17.5V18.5C13.9639 18.5 15.7579 17.635 17.2169 16.5853C18.6799 15.5327 19.849 14.2638 20.574 13.3836L19.8021 12.7478ZM12 17.5C10.3282 17.5 8.73815 16.7599 7.36713 15.7735C6.00005 14.79 4.89305 13.5918 4.19791 12.7478L3.42603 13.3836C4.15098 14.2638 5.32013 15.5327 6.78311 16.5853C8.24215 17.635 10.0361 18.5 12 18.5V17.5ZM4.19791 11.2522C4.89305 10.4082 6.00005 9.21001 7.36713 8.22646C8.73815 7.24007 10.3282 6.5 12 6.5V5.5C10.0361 5.5 8.24215 6.365 6.78311 7.41472C5.32013 8.46727 4.15098 9.73623 3.42603 10.6164L4.19791 11.2522ZM12 6.5C13.6718 6.5 15.2618 7.24007 16.6329 8.22646C18 9.21001 19.107 10.4082 19.8021 11.2522L20.574 10.6164C19.849 9.73623 18.6799 8.46727 17.2169 7.41472C15.7579 6.365 13.9639 5.5 12 5.5V6.5ZM4.19791 12.7478C3.77355 12.2326 3.72973 12.1435 3.72973 12H2.72973C2.72973 12.5741 3.07406 12.9563 3.42603 13.3836L4.19791 12.7478ZM3.42603 10.6164C3.07406 11.0437 2.72973 11.4259 2.72973 12H3.72973C3.72973 11.8565 3.77355 11.7674 4.19791 11.2522L3.42603 10.6164ZM20.574 13.3836C20.9259 12.9563 21.2703 12.5741 21.2703 12H20.2703C20.2703 12.1435 20.2264 12.2326 19.8021 12.7478L20.574 13.3836ZM19.8021 11.2522C20.2264 11.7674 20.2703 11.8565 20.2703 12H21.2703C21.2703 11.4259 20.9259 11.0437 20.574 10.6164L19.8021 11.2522Z" fill="#021704"/>
</svg>
