<svg width="24" height="24" viewBox="0 0 24 24" fill="none" xmlns="http://www.w3.org/2000/svg">
<path d="M8 9L8 5C8 2.79086 9.79086 1 12 1V1C14.2091 1 16 2.79086 16 5L16 9" stroke="#021704" stroke-linecap="round"/>
<path d="M2.34066 20.6822L1.97507 21.0233L2.34066 20.6822ZM21.8515 18.8614L22.3503 18.8268L21.8515 18.8614ZM21.6593 20.6822L21.2937 20.3411L21.6593 20.6822ZM20.3873 5.53762L20.7284 5.17203L20.3873 5.53762ZM3.61269 5.53762L3.2716 5.17203L3.61269 5.53762ZM6.84297 5.5H17.157V4.5H6.84297V5.5ZM20.6486 8.75753L21.3527 18.8961L22.3503 18.8268L21.6462 8.68825L20.6486 8.75753ZM19.8563 20.5H4.1437V21.5H19.8563V20.5ZM2.64731 18.8961L3.35138 8.75753L2.35378 8.68825L1.64971 18.8268L2.64731 18.8961ZM4.1437 20.5C3.62689 20.5 3.29108 20.4989 3.04504 20.465C2.81332 20.433 2.74402 20.3816 2.70626 20.3411L1.97507 21.0233C2.23383 21.3006 2.56387 21.4081 2.90846 21.4556C3.23872 21.5011 3.65617 21.5 4.1437 21.5V20.5ZM1.64971 18.8268C1.61594 19.3132 1.5859 19.7295 1.60844 20.0622C1.63197 20.4092 1.71631 20.7459 1.97507 21.0233L2.70626 20.3411C2.6685 20.3006 2.62197 20.2279 2.60616 19.9945C2.58936 19.7467 2.61151 19.4117 2.64731 18.8961L1.64971 18.8268ZM21.3527 18.8961C21.3885 19.4117 21.4106 19.7467 21.3938 19.9945C21.378 20.2279 21.3315 20.3006 21.2937 20.3411L22.0249 21.0233C22.2837 20.7459 22.368 20.4092 22.3916 20.0622C22.4141 19.7295 22.3841 19.3132 22.3503 18.8268L21.3527 18.8961ZM19.8563 21.5C20.3438 21.5 20.7613 21.5011 21.0915 21.4556C21.4361 21.4081 21.7662 21.3006 22.0249 21.0233L21.2937 20.3411C21.256 20.3816 21.1867 20.433 20.955 20.465C20.7089 20.4989 20.3731 20.5 19.8563 20.5V21.5ZM17.157 5.5C18.0553 5.5 18.6803 5.501 19.1548 5.56299C19.615 5.62312 19.8641 5.73326 20.0462 5.90321L20.7284 5.17203C20.3343 4.80436 19.8529 4.64569 19.2844 4.57142C18.7301 4.499 18.0281 4.5 17.157 4.5V5.5ZM21.6462 8.68825C21.5859 7.81927 21.5382 7.11891 21.4276 6.57098C21.3141 6.00897 21.1225 5.53969 20.7284 5.17203L20.0462 5.90321C20.2284 6.07317 20.3555 6.31398 20.4474 6.76892C20.5421 7.23795 20.5864 7.8614 20.6486 8.75753L21.6462 8.68825ZM6.84297 4.5C5.9719 4.5 5.26991 4.499 4.71564 4.57142C4.14711 4.64569 3.66569 4.80436 3.2716 5.17203L3.95378 5.90321C4.13595 5.73326 4.38498 5.62312 4.84519 5.56299C5.31966 5.501 5.94469 5.5 6.84297 5.5V4.5ZM3.35138 8.75753C3.41361 7.8614 3.4579 7.23795 3.55261 6.76892C3.64448 6.31398 3.77161 6.07317 3.95378 5.90321L3.2716 5.17203C2.87752 5.53969 2.68589 6.00897 2.5724 6.57098C2.46176 7.1189 2.41412 7.81927 2.35378 8.68825L3.35138 8.75753Z" fill="#021704"/>
</svg>
