<svg width="24" height="24" viewBox="0 0 24 24" fill="none" xmlns="http://www.w3.org/2000/svg">
<mask id="path-1-inside-1_602_2278" fill="white">
<path d="M3.66275 12.751L10.9445 20.8291C11.5089 21.4552 12.4911 21.4552 13.0555 20.8291L20.3372 12.751C22.5542 10.2916 22.5542 6.30403 20.3372 3.84458C18.1203 1.38514 14.5258 1.38514 12.3088 3.84458C12.1437 4.02775 11.8563 4.02775 11.6912 3.84458C9.47421 1.38514 5.87975 1.38514 3.66275 3.84458C1.44575 6.30403 1.44575 10.2916 3.66275 12.751Z"/>
</mask>
<path d="M3.66275 12.751L4.40552 12.0815L3.66275 12.751ZM20.3372 12.751L21.08 13.4206L20.3372 12.751ZM10.9445 20.8291L10.2017 21.4986L10.9445 20.8291ZM13.0555 20.8291L13.7983 21.4986L13.0555 20.8291ZM19.5945 4.51413C21.4685 6.59309 21.4685 10.0025 19.5945 12.0815L21.08 13.4206C23.64 10.5806 23.64 6.01496 21.08 3.17503L19.5945 4.51413ZM13.0516 4.51413C14.8714 2.49529 17.7747 2.49529 19.5945 4.51413L21.08 3.17503C18.4659 0.274987 14.1802 0.27499 11.566 3.17503L13.0516 4.51413ZM4.40552 4.51413C6.22535 2.49529 9.12861 2.49529 10.9484 4.51413L12.434 3.17503C9.81981 0.274989 5.53415 0.274988 2.91998 3.17503L4.40552 4.51413ZM4.40552 12.0815C2.53149 10.0025 2.53149 6.59309 4.40552 4.51413L2.91998 3.17503C0.360005 6.01496 0.360007 10.5806 2.91998 13.4206L4.40552 12.0815ZM11.6873 20.1595L4.40552 12.0815L2.91998 13.4206L10.2017 21.4986L11.6873 20.1595ZM19.5945 12.0815L12.3127 20.1595L13.7983 21.4986L21.08 13.4206L19.5945 12.0815ZM11.566 3.17503C11.7981 2.9176 12.2019 2.9176 12.434 3.17504L10.9484 4.51413C11.5107 5.1379 12.4893 5.1379 13.0516 4.51413L11.566 3.17503ZM10.2017 21.4986C11.1633 22.5653 12.8367 22.5653 13.7983 21.4986L12.3127 20.1595C12.1455 20.345 11.8545 20.345 11.6873 20.1595L10.2017 21.4986Z" fill="#021704" mask="url(#path-1-inside-1_602_2278)"/>
</svg>
