<svg width="24" height="24" viewBox="0 0 24 24" fill="none" xmlns="http://www.w3.org/2000/svg">
<path d="M10 15L10 12" stroke="#021704" stroke-linecap="round"/>
<path d="M14 15L14 12" stroke="#021704" stroke-linecap="round"/>
<path d="M19.6667 6.26795L19.4167 5.83494L19.6667 6.26795ZM18.9346 7L18.5016 6.75L18.9346 7ZM5.06538 7L4.63237 7.25L5.06538 7ZM4.33333 6.26795L4.08333 6.70096L4.33333 6.26795ZM5.91912 21.4142L6.27267 21.0607L5.91912 21.4142ZM18.0809 21.4142L17.7273 21.0607L18.0809 21.4142ZM2 6.5H22V5.5H2V6.5ZM14.6667 21.5H9.33333V22.5H14.6667V21.5ZM5.83333 18V9.33333H4.83333V18H5.83333ZM18.1667 9.33333V18H19.1667V9.33333H18.1667ZM22 5.5C21.3861 5.5 20.8923 5.49952 20.4949 5.53553C20.0907 5.57217 19.7375 5.6497 19.4167 5.83494L19.9167 6.70096C20.0599 6.61825 20.2503 6.5618 20.5852 6.53145C20.9269 6.50048 21.3677 6.5 22 6.5V5.5ZM19.1667 9.33333C19.1667 8.70105 19.1671 8.26027 19.1981 7.91853C19.2285 7.58366 19.2849 7.39327 19.3676 7.25L18.5016 6.75C18.3164 7.07083 18.2388 7.42403 18.2022 7.82827C18.1662 8.22562 18.1667 8.71946 18.1667 9.33333H19.1667ZM19.4167 5.83494C19.0366 6.05436 18.721 6.36995 18.5016 6.75L19.3676 7.25C19.4993 7.02197 19.6886 6.83261 19.9167 6.70096L19.4167 5.83494ZM5.83333 9.33333C5.83333 8.71946 5.83381 8.22562 5.7978 7.82827C5.76116 7.42403 5.68363 7.07083 5.4984 6.75L4.63237 7.25C4.71509 7.39327 4.77153 7.58366 4.80188 7.91853C4.83285 8.26027 4.83333 8.70105 4.83333 9.33333H5.83333ZM2 6.5C2.63228 6.5 3.07306 6.50048 3.41481 6.53145C3.74968 6.5618 3.94007 6.61825 4.08333 6.70096L4.58333 5.83494C4.2625 5.6497 3.9093 5.57217 3.50507 5.53553C3.10771 5.49952 2.61388 5.5 2 5.5V6.5ZM5.4984 6.75C5.27898 6.36995 4.96338 6.05436 4.58333 5.83494L4.08333 6.70096C4.31136 6.83261 4.50072 7.02197 4.63237 7.25L5.4984 6.75ZM9.33333 21.5C8.37639 21.5 7.70898 21.4989 7.20541 21.4312C6.71623 21.3655 6.45718 21.2452 6.27267 21.0607L5.56557 21.7678C5.96684 22.169 6.47209 22.3416 7.07217 22.4223C7.65785 22.5011 8.40466 22.5 9.33333 22.5V21.5ZM4.83333 18C4.83333 18.9287 4.83227 19.6755 4.91102 20.2612C4.99169 20.8612 5.16429 21.3665 5.56557 21.7678L6.27267 21.0607C6.08816 20.8762 5.96787 20.6171 5.9021 20.1279C5.8344 19.6244 5.83333 18.9569 5.83333 18H4.83333ZM14.6667 22.5C15.5953 22.5 16.3421 22.5011 16.9278 22.4223C17.5279 22.3416 18.0332 22.169 18.4344 21.7678L17.7273 21.0607C17.5428 21.2452 17.2838 21.3655 16.7946 21.4312C16.291 21.4989 15.6236 21.5 14.6667 21.5V22.5ZM18.1667 18C18.1667 18.9569 18.1656 19.6244 18.0979 20.1279C18.0321 20.6171 17.9118 20.8762 17.7273 21.0607L18.4344 21.7678C18.8357 21.3665 19.0083 20.8612 19.089 20.2612C19.1677 19.6755 19.1667 18.9287 19.1667 18H18.1667Z" fill="#021704"/>
<path d="M10.0681 2.37059C10.1821 2.26427 10.4332 2.17033 10.7825 2.10332C11.1318 2.03632 11.5597 2 12 2C12.4403 2 12.8682 2.03632 13.2175 2.10332C13.5668 2.17033 13.8179 2.26427 13.9319 2.37059" stroke="#021704" stroke-linecap="round"/>
</svg>
