<svg width="24" height="24" viewBox="0 0 24 24" fill="none" xmlns="http://www.w3.org/2000/svg">
<path d="M6.8071 9.52702L6.45347 9.88049L6.8071 9.52702ZM10.8545 18.9861L10.7332 18.501H10.7332L10.8545 18.9861ZM13.3884 18.3523L13.2671 17.8672L13.2671 17.8672L13.3884 18.3523ZM17.1935 9.52702L16.8399 9.17355L16.8399 9.17355L17.1935 9.52702ZM14.0598 12.6622L14.4135 13.0156L14.0598 12.6622ZM9.94048 12.6618L9.58685 13.0153L9.94048 12.6618ZM18.9902 5.99599L18.4963 5.91823L18.9902 5.99599ZM5.93255 5.5H18.0681V4.5H5.93255V5.5ZM7.16073 9.17355C6.27293 8.28534 5.69727 7.14341 5.50437 5.91823L4.51654 6.07376C4.74211 7.50645 5.41525 8.84181 6.45347 9.88049L7.16073 9.17355ZM10.2941 12.3083L7.16073 9.17355L6.45347 9.88049L9.58685 13.0153L10.2941 12.3083ZM9.73322 13.3688V18.501H10.7332V13.3688H9.73322ZM9.73322 18.501C9.73322 19.1516 10.3447 19.629 10.9759 19.4711L10.7332 18.501H10.7332H9.73322ZM10.9759 19.4711L13.5097 18.8374L13.2671 17.8672L10.7332 18.501L10.9759 19.4711ZM13.5097 18.8374C13.9549 18.726 14.2671 18.3261 14.2671 17.8672H13.2671L13.2671 17.8672L13.5097 18.8374ZM14.2671 17.8672V13.3691H13.2671V17.8672H14.2671ZM16.8399 9.17355L13.7062 12.3087L14.4135 13.0156L17.5472 9.88049L16.8399 9.17355ZM18.4963 5.91823C18.3034 7.14341 17.7277 8.28534 16.8399 9.17355L17.5472 9.88049C18.5854 8.84181 19.2585 7.50645 19.4841 6.07376L18.4963 5.91823ZM14.2671 13.3691C14.2671 13.2365 14.3198 13.1094 14.4135 13.0156L13.7062 12.3087C13.425 12.59 13.2671 12.9714 13.2671 13.3691H14.2671ZM9.58685 13.0153C9.68057 13.1091 9.73322 13.2362 9.73322 13.3688H10.7332C10.7332 12.9711 10.5753 12.5896 10.2941 12.3083L9.58685 13.0153ZM18.0681 5.5C18.3697 5.5 18.526 5.72931 18.4963 5.91823L19.4841 6.07376C19.6262 5.17154 18.8711 4.5 18.0681 4.5V5.5ZM5.93255 4.5C5.12954 4.5 4.37449 5.17154 4.51654 6.07376L5.50437 5.91823C5.47462 5.72932 5.63099 5.5 5.93255 5.5V4.5Z" fill="#021704"/>
</svg>
